Results
version=1
nRows=24
nColumns=24
inDegrees=yes
endheader
time	pelvis_tilt	pelvis_list	pelvis_rotation	pelvis_tx	pelvis_ty	pelvis_tz	hip_flexion_r	hip_adduction_r	hip_rotation_r	knee_angle_r	ankle_angle_r	subtalar_angle_r	mtp_angle_r	hip_flexion_l	hip_adduction_l	hip_rotation_l	knee_angle_l	ankle_angle_l	subtalar_angle_l	mtp_angle_l	lumbar_extension	lumbar_bending	lumbar_rotation
      1.28816667	     -2.80785011	      3.78147440	     -6.44102351	      0.27930511	      1.06453361	      0.33726368	     18.77333078	     -7.23643559	     -3.00257454	    -72.24970267	     -4.42466263	     -6.37905191	      9.69389503	     12.88286029	      5.87905383	      2.53737036	    -15.29183466	      5.08615636	     -4.03272200	      2.81605549	    -11.59670346	     -4.86120162	      0.34919776
      1.29233333	     -2.78204951	      3.67521861	     -6.37747981	      0.28440169	      1.06562388	      0.33713398	     19.24342453	     -7.09016412	     -3.10486349	    -72.00722341	     -4.05093625	     -6.27845006	      9.61470335	     12.30488855	      5.81887074	      2.72748174	    -14.80224116	      5.03292631	     -4.14741861	      2.81398006	    -11.65367734	     -4.69862842	      0.15537011
      1.29650000	     -2.75713559	      3.53442492	     -6.30348264	      0.28947070	      1.06670043	      0.33700416	     19.69210267	     -6.90239281	     -3.22260605	    -71.69936394	     -3.67707077	     -6.10668832	      9.59871172	     11.74307113	      5.71460215	      2.87664864	    -14.35230374	      5.04145746	     -4.13905198	      2.81456910	    -11.72904835	     -4.49693158	      0.04785024
      1.30066667	     -2.71862592	      3.44156146	     -6.22666973	      0.29454693	      1.06773476	      0.33685799	     20.12908790	     -6.77668520	     -3.33953087	    -71.36594630	     -3.27929081	     -5.87314803	      9.56700673	     11.13961671	      5.67152989	      3.10874563	    -13.82756616	      4.96905365	     -4.31644021	      2.81395854	    -11.79029890	     -4.34710824	     -0.22233286
      1.30483333	     -2.68132734	      3.30484639	     -6.14014870	      0.29959614	      1.06876820	      0.33670310	     20.54159712	     -6.60011336	     -3.47368166	    -70.96020213	     -2.89990353	     -5.58669910	      9.56519279	     10.55597462	      5.57366157	      3.29082663	    -13.35359307	      4.98108512	     -4.35824487	      2.81594019	    -11.86872817	     -4.14376399	     -0.36527511
      1.30900000	     -2.65666216	      3.19330852	     -6.04799910	      0.30463515	      1.06971572	      0.33655506	     20.96577846	     -6.45037890	     -3.60800702	    -70.52485936	     -2.48935841	     -5.26276816	      9.57476315	      9.98090409	      5.50115005	      3.50284757	    -12.85655251	      4.93922632	     -4.45550265	      2.81691260	    -11.92892231	     -3.96873178	     -0.56205133
      1.31316667	     -2.62327984	      3.07264499	     -5.94677472	      0.30965771	      1.07066076	      0.33640085	     21.36305420	     -6.29148714	     -3.75275658	    -70.03273081	     -2.08168217	     -4.95622578	      9.59644719	      9.39044054	      5.41838432	      3.74112501	    -12.34284452	      4.84121293	     -4.60123402	      2.81833060	    -12.00231120	     -3.78953239	     -0.78383191
      1.31733333	     -2.61368323	      2.95826812	     -5.84328569	      0.31467103	      1.07149921	      0.33624946	     21.78084798	     -6.13797720	     -3.90028621	    -69.50546862	     -1.68072586	     -4.57200469	      9.62620860	      8.83889004	      5.33570847	      3.95028591	    -11.85845280	      4.83127943	     -4.68028901	      2.82055014	    -12.04335073	     -3.60663276	     -0.94730822
      1.32150000	     -2.58018544	      2.84875396	     -5.74023839	      0.31967336	      1.07233985	      0.33609625	     22.16172168	     -5.99480215	     -4.05077763	    -68.93260712	     -1.27311782	     -4.19024161	      9.66545827	      8.25578487	      5.25900817	      4.17590253	    -11.35603243	      4.78108483	     -4.79242949	      2.82173582	    -12.11432606	     -3.43247598	     -1.13990243
      1.32566667	     -2.56124384	      2.73556151	     -5.62396412	      0.32466729	      1.07312685	      0.33594648	     22.54197443	     -5.84330328	     -4.20976348	    -68.31106857	     -0.86175967	     -3.82577282	      9.72349803	      7.68552752	      5.17487633	      4.43209791	    -10.84159603	      4.67365230	     -4.95570928	      2.82216840	    -12.17328182	     -3.25457851	     -1.35478140
      1.32983333	     -2.55373170	      2.61711929	     -5.50976418	      0.32965962	      1.07382972	      0.33579131	     22.92385376	     -5.68797652	     -4.37262997	    -67.64710875	     -0.47746060	     -3.41766956	      9.77153426	      7.14390202	      5.07901240	      4.63675690	    -10.36828619	      4.68070266	     -5.02046957	      2.82424224	    -12.20847011	     -3.06634323	     -1.50132008
      1.33400000	     -2.54345939	      2.51428257	     -5.39445781	      0.33464417	      1.07448480	      0.33565458	     23.29547851	     -5.54833932	     -4.53209981	    -66.94819200	     -0.08012483	     -3.01471502	      9.82572292	      6.59549653	      4.99730440	      4.86207116	     -9.87908391	      4.63929449	     -5.12842859	      2.82453939	    -12.25050529	     -2.90034327	     -1.68964694
      1.33816667	     -2.55707162	      2.42089886	     -5.27623539	      0.33961954	      1.07504547	      0.33552089	     23.68505169	     -5.41659925	     -4.69075354	    -66.21263163	      0.31115458	     -2.63385779	      9.88967254	      6.07476409	      4.92146563	      5.10604722	     -9.38866039	      4.57209587	     -5.27476866	      2.82328613	    -12.26458675	     -2.74043026	     -1.88734416
      1.34233333	     -2.56276840	      2.33716460	     -5.15516073	      0.34458989	      1.07556502	      0.33539261	     24.05462572	     -5.29682496	     -4.85199466	    -65.43925839	      0.69815430	     -2.28445909	      9.97537179	      5.54265434	      4.85448878	      5.36082544	     -8.88477250	      4.46874716	     -5.46399704	      2.82012154	    -12.28232729	     -2.59432538	     -2.08944675
      1.34650000	     -2.58236638	      2.23862773	     -5.04127940	      0.34956711	      1.07600425	      0.33527958	     24.42452221	     -5.15702446	     -5.01052275	    -64.61965596	      1.04525527	     -1.91303429	     10.03144967	      5.04545039	      4.76389183	      5.54959592	     -8.43457733	      4.49306572	     -5.51757027	      2.82026228	    -12.28350808	     -2.43034985	     -2.21819491
      1.35066667	     -2.59050588	      2.15789190	     -4.92705626	      0.35453279	      1.07641848	      0.33517652	     24.77385988	     -5.03771705	     -5.16401893	    -63.76608072	      1.40159363	     -1.56555255	     10.09407778	      4.52887921	      4.69182202	      5.76986867	     -7.96052430	      4.45558635	     -5.63838644	      2.81745914	    -12.30042433	     -2.28733028	     -2.39887337
      1.35483333	     -2.60802511	      2.08499042	     -4.81323843	      0.35949304	      1.07674940	      0.33507837	     25.12336535	     -4.92550913	     -5.31437842	    -62.87757848	      1.74105462	     -1.24972661	     10.15515765	      4.02794403	      4.62469822	      5.98528749	     -7.49538359	      4.42355254	     -5.76131467	      2.81372659	    -12.30222189	     -2.15409386	     -2.56316422
      1.35900000	     -2.64904976	      2.01819219	     -4.70330585	      0.36446389	      1.07698891	      0.33500191	     25.48683200	     -4.81437245	     -5.45726762	    -61.95234666	      2.06341225	     -0.96120157	     10.21440197	      3.55696298	      4.55833613	      6.19231726	     -7.04004042	      4.39382525	     -5.88384722	      2.80909468	    -12.27388725	     -2.02696382	     -2.71857924
      1.36316667	     -2.68489167	      1.94949321	     -4.59687846	      0.36942278	      1.07719027	      0.33493961	     25.83034663	     -4.69848160	     -5.59507541	    -60.98480045	      2.36882645	     -0.70406489	     10.27607043	      3.08036069	      4.48765115	      6.40502447	     -6.58353304	      4.36321254	     -6.01538065	      2.80346915	    -12.25879600	     -1.90046459	     -2.87931080
      1.36733333	     -2.71750081	      1.89754064	     -4.49544308	      0.37436267	      1.07733199	      0.33490006	     26.16435466	     -4.59492375	     -5.71431521	    -59.98930317	      2.67503186	     -0.49512297	     10.35389534	      2.59922816	      4.43171642	      6.63710107	     -6.11864343	      4.29431330	     -6.18274069	      2.79438343	    -12.25987104	     -1.79557135	     -3.04954805
      1.37150000	     -2.75641475	      1.84782767	     -4.39988771	      0.37932294	      1.07741643	      0.33487127	     26.48907174	     -4.49353946	     -5.83105314	    -58.95137210	      2.94187055	     -0.28798036	     10.41963791	      2.13456924	      4.37541170	      6.82605239	     -5.67952976	      4.28875560	     -6.29451431	      2.78632262	    -12.23545418	     -1.69591920	     -3.17664882
      1.37566667	     -2.82295815	      1.80406298	     -4.30770882	      0.38428884	      1.07739078	      0.33485990	     26.83224695	     -4.39240025	     -5.93877074	    -57.87992238	      3.19146669	     -0.11965029	     10.48246060	      1.70283547	      4.32051586	      7.01530769	     -5.24741004	      4.28352780	     -6.41590484	      2.77692646	    -12.17338336	     -1.59869211	     -3.30947015
      1.37983333	     -2.86419541	      1.77321358	     -4.22527249	      0.38924783	      1.07734861	      0.33486398	     27.13802070	     -4.30459632	     -6.03421746	    -56.77584562	      3.42794323	      0.01397707	     10.53107075	      1.24947390	      4.27911136	      7.16276922	     -4.82445952	      4.29180846	     -6.49927893	      2.76904553	    -12.13682182	     -1.52144710	     -3.41185913
      1.38400000	     -2.92262507	      1.73575700	     -4.14669655	      0.39420735	      1.07723119	      0.33489145	     27.44403720	     -4.20145582	     -6.11913142	    -55.62694885	      3.64197931	      0.11129413	     10.57514401	      0.81469242	      4.22636155	      7.31930763	     -4.40413278	      4.30035643	     -6.59098268	      2.76088044	    -12.08371369	     -1.43974043	     -3.51821287
